<?xml version="1.0" encoding="utf-8"?>
<!-- Generator: Adobe Illustrator 21.1.0, SVG Export Plug-In . SVG Version: 6.00 Build 0)  -->
<svg version="1.1" id="Layer_1" xmlns="http://www.w3.org/2000/svg" xmlns:xlink="http://www.w3.org/1999/xlink" x="0px" y="0px"
	 viewBox="0 0 566.9 123.2" style="enable-background:new 0 0 566.9 123.2;" xml:space="preserve">
<style type="text/css">
	.st0{fill:#EC1E27;}
	.st1{fill:#EC1C25;}
	.st2{fill:#EC1F28;}
	.st3{fill:#EC1B24;}
	.st4{fill:#EC1D26;}
</style>
<g>
	<path class="st0" d="M0.1,55.7c0.3,0,0.6,0,0.9,0c26.6,0,53.1,0,79.7,0c0.3,0,0.6,0,0.9,0c0.3,0,0.8-0.2,0.7,0.3
		c0,0.3,0.1,0.9-0.5,1c-0.4,0-0.4,0.4-0.6,0.5c-0.8,0.6-0.5,1.8-1,2.2c-0.5,0.4-0.6,0.8-0.8,1.2c-0.1,0.4-0.3,0.4-0.6,0.5
		c-0.5,0.2-1,0.1-1.5,0.1c-25.3,0-50.7,0-76,0c-0.5,0-0.9,0-1.4,0.1C0.1,59.6,0.1,57.7,0.1,55.7z"/>
	<path class="st1" d="M0.1,80.1c21.8,0,43.6,0,65.4,0c0.3,0,0.7-0.1,1,0c0.3,0.1,0.8-0.2,0.9,0.3c0,0.4-0.2,0.8-0.4,1.2
		c-0.4,0.8-1.7,1-1.5,2.2c-1,0.4-0.4,1.9-1.5,2.2c-0.2,1.6-1.5,1-2.3,1c-20.5,0-41.1,0-61.6,0C0.1,84.7,0.1,82.4,0.1,80.1z"/>
	<path class="st2" d="M0.1,67.7c0.4,0.2,0.8,0.1,1.1,0.1c24.1,0,48.2,0,72.3,0c0.3,0,0.6,0,0.9,0.1c0.2,0,0.6-0.1,0.7,0.3
		c0.1,0.4-0.3,0.3-0.5,0.3c-0.2,0-0.2,0.2-0.2,0.3c0,1.1-0.7,1.9-1.6,2.5c-0.1,0.1-0.1,0.4-0.1,0.6c0,0.8-1.1,1-1,1.8
		c0,0-0.3,0.1-0.5,0.1c-19,0-38,0-56.9-0.1c-4.4,0-8.7,0-13.1,0c-0.4,0-0.8,0.1-1.1,0.1C0.1,71.7,0.1,69.7,0.1,67.7z"/>
	<path class="st1" d="M136.1,45.1c0.1,0.8,0.6,0.8,1,0.8c8.3,0,16.6,0,24.9,0c0.5,0,1.1,0.3,1.1-0.8c0.2,1,1.1,1,1.4,1.7
		c0.2,0.3,0.6,0.7,0.7,1.2c0.1,0.3,0,0.5,0.4,0.5c0.5-0.1,0.6,0.1,0.7,0.6c0.1,0.5,0.8,0.8,1.1,1.3c0.4,0.7,1.4,1.1,1.4,2.1
		c0,0.6,1.2,0.3,0.9,1.1c1-0.1,0.5,1.5,1.6,1.4c0.3,0,0.6,0.7,0.7,0.9c0.4,0.7,1.3,0.9,1.3,1.9c0,0.6,1,0.5,0.9,1.3
		c1,0.1,0.8,1.1,1.3,1.6c0.4,0.4,0.8,0.5,1.1,0.4c0.4-0.1,1,0.1,1-0.8c0-0.8,0.8-1.4,1.3-2c0.4-0.5,1.1-0.9,1.2-1.6
		c0.1-0.7,0.8-1.2,1.4-1.6c0.1,0,0.3-0.1,0.3-0.1c-0.2-0.9,1.1-1.1,1.1-2c0-0.7,0.8-0.8,1.1-1.4c0.3-0.6,0.9-1.2,1.4-1.6
		c0.8-0.5,0.6-1.4,1-1.8c0.4-0.4,0.9-0.6,1.2-1.1c0.9-1.5,2.3-1,3.6-1c7.5,0,14.9,0,22.4,0c0.5,0,1.1,0.2,1.1-0.8
		c0.2,0.6,0.5,1.1,1.2,1.1c-0.8,0.5-1.2,1.3-1.8,1.6c-0.7,0.4-0.4,1.7-1.6,1.5c0,0.8-1.1,0.8-1.1,1.7c0,0.7-0.9,0.9-1.2,1.5
		c-0.3,0.6-1.2,0.9-1.3,1.8c-1.2,0.1-0.5,1.8-1.7,1.9c-0.3,0-0.7,0.7-1,1.2l-1.7,2.4c-0.3,0.9-1.1,1.7-1.8,2.2
		c-0.7,0.6-0.8,1.4-1.3,1.9c-0.8,0.9-1.5,1.9-2.4,2.7c-0.4,0.4-0.5,0.9-0.8,1.2c-0.6,0.5-0.5,1.5-1.5,1.7c-0.4,0.1-0.3,1-1,0.9
		c0,0.8-1.2,1-1.1,2c0,0.4-0.6,0.6-0.9,1c-0.6,0.8-1.3,1.6-1.6,2.6c-0.2,0.4-0.8,0.7-1.2,1c-0.5,0.4-0.4,1.3-1.2,1.2
		c0,0-0.2,0.7,0.1,0.8c0.5,0.1,0.5,0.7,0.6,0.8c1.1,0.2,0.4,2.1,1.8,2c0.1,0,0.6,0.7,0.9,1.1c0.4,0.6,1.2,1.1,1.4,1.6
		c0.3,0.8,1.2,1.1,1.3,2.1c0,0.5,0.8,0.9,1.3,1.4c0.4,0.5,1.1,0.8,1.3,1.5c0.1,0.4-0.2,1.2,0.8,1.2c0.2,0,0.3,0.6,0.6,1
		c0.5,0.4,1.4,0.9,1.2,1.9c0,0.2,0,0.4,0.3,0.4c0.5-0.1,0.5,0.3,0.5,0.7c0,0.1,0.1,0.4,0.1,0.4c1.3,0.3,1.6,1.7,2.5,2.4
		c0.6,0.5,0.7,1.4,1,1.5c1.1,0.5,0.9,2.3,2.3,2.4c0.1,0,0.2,0.1,0.2,0.2c0.3,1.5,1.7,2.1,2.4,3.2c0.4,0.7,1.2,1.1,1.2,2
		c0,0.6,1.1,0.5,0.9,1.3c1.3,0,1.2,1.7,2.3,2c0.2,0,0.2,0.7,0.3,1.1c0,0.2-0.1,0.4,0.2,0.6c0.2,0.1,0.6,0,0.5,0.4
		c-0.1,0.4-0.5,0.2-0.7,0.3c-0.6,0.1-1.1,0-1.7,0c-8.2,0-16.4,0-24.6,0c-0.9,0-1.6-0.2-1.6-1.3c0-0.1,0-0.2,0-0.2
		c-1.3-0.2-1.2-1.9-2.3-2.2c-0.2-0.1-0.2-0.2-0.2-0.3c-0.1-1-1.1-1.5-1.6-2.2c-0.3-0.5-1.1-0.8-1.1-1.6c0-0.4-0.9-0.7-1.3-1.2
		c-0.1-0.1-0.3,0-0.4-0.3c-0.2-1.5-1.4-2.2-2.4-3.1c-0.1-0.1-0.1-0.2-0.1-0.3c0.2-1-0.8-1.4-1.1-2.2c-0.3-0.6-2.2,0-2.7,0.3
		c-1.1,0.8-0.9,2.3-2.2,3.1c-0.7,0.4-1.7,1.2-1.9,1.9c-0.3,0.8-0.9,1.4-1.3,2.1c-0.2,0.4-0.3,1.3-1.1,1.3c-0.2,0-0.3,0.2-0.3,0.3
		c-0.1,1.1-0.9,1.5-1.6,2.1c-0.4,0.3-1,0.7-1.1,1.5c-0.1,0.6-0.7,1-1.1,1.3c-1.2,1-1.3,0.9-3.4,0.9c-24.5,0-48.9,0-73.4,0
		c-1.5,0-1.6-0.1-1.6-1.5c0-33.9,0-67.8,0-101.7c0-0.6,0.1-0.9,0.7-0.8c0.3,0,0.7,0,1,0c16,0,31.9,0,47.9,0c0.3,0,0.6,0,0.8,0
		c0.6,0.1,1,0.3,1,1.1c0,6.8,0,13.6,0,20.5c0,0.8-0.4,1-1,1.1c-0.3,0-0.6,0-0.8,0c-8.8,0-17.6,0-26.4,0c-0.1,0-0.2,0-0.3,0
		c-2,0-2,0-2,1.9c0,4,0,8,0,12.1c0,0.9,0.3,1.1,1.1,1c0.4-0.1,0.8-0.1,1.1-0.1c9,0,18,0,27,0C135.5,45.9,136,46,136.1,45.1z
		 M107.1,88c0.1,0.9,0.7,0.7,1.2,0.7c8.7,0,17.4,0,26.1,0c0.9,0,1.1,0.2,1.1,1.1c0,7.1,0,14.2,0,21.3c0,0.2-0.3,0.6,0.2,0.6
		c0.3,0,0.8,0.1,0.8-0.1c-0.2-0.8,1.1-1,0.8-1.9c-0.1-0.2,0.1-0.6,0.2-0.7c1.1-0.4,1.1-1.9,2.4-2c0,0,0.1-0.2,0.1-0.3
		c0.1-1.1,1.2-1.5,1.5-2.4c0.2-0.6,1-0.7,1-1.4c0-0.9,0.8-1.4,1.4-1.8c0.4-0.3,0.2-0.9,0.7-0.9c1-0.1,0.6-1.4,1.5-1.5
		c-0.3-0.8,0.9-0.2,0.8-0.9c-0.1-0.9,0.7-1.6,1.1-1.9c0.8-0.7,1.4-1.4,1.7-2.4c0-0.1,0-0.3,0.1-0.3c0.9-0.2,1.2-1.3,1.8-1.6
		c0.6-0.3,0.4-1.4,1.3-1.2c0,0,0.2-0.2,0.2-0.3c-0.2-1,0.7-1.7,1.2-2c0.5-0.4,0.3-1.1,0.7-1.1c1,0.1,0.8-0.7,1-1.2
		c0.1-0.1,0.1-0.3,0.1-0.4c0.9-0.3,0.9-1.4,1.5-1.7c0.6-0.3,0.6-1,1.2-1.4c0.4-0.3,1.1-0.7,1.2-1.5c0-0.4,0.2-0.7,0.8-0.9
		c0.5-0.1,0.7-0.9,1.1-1.5c0.1-0.1,0-0.4-0.1-0.5c-0.7-0.5-1.3-1.3-1.9-1.7c-1.3-0.7-1.1-2.4-2.4-3c0.3-0.8-1.1-0.7-0.9-1.4
		c-0.6-0.1-0.6-1-1-1c-1.2-0.1-0.6-1.8-1.7-1.9c0.2-0.9-1.1-0.8-1-1.7c-1.3-0.4-1.1-2.1-2.4-2.6c0.1-0.9-1-1-1.3-1.8
		c-0.2-0.7-1.5-1.1-1.5-2.2c0-0.1-0.1-0.2-0.2-0.2c-0.9,0.1-0.7-0.9-1.3-1.3c-0.8-0.6-0.8-1.9-2-2.5c-0.5-0.3-1.1-1.1-1.5-1.8
		c-0.3-0.4-0.8-0.6-0.9-1c-0.2-0.8-1.3-1.2-1.1-2.2c-0.9,0.1-0.6-0.8-1.1-1.1c-0.7-0.4-1.5-0.9-1.5-1.9c0-0.5-0.1-0.7-0.6-0.7
		c-0.7,0-1.1-0.3-0.9-1.1c0.1-0.6-0.2-0.8-0.7-0.7c-0.7,0.1-0.4,0.7-0.4,1c0,6.3,0,12.6,0,18.9c0,0.8-0.2,1.1-1.1,1.1
		c-8.7,0-17.5,0-26.2,0c-0.8,0-1.9-0.2-2.4,0.2c-0.6,0.4-0.1,1.5-0.1,2.3c0,5.9,0,11.9,0,17.8c0,0.3-0.2,0.8,0.4,0.9
		C106.7,88.9,107,88.6,107.1,88z"/>
	<path class="st3" d="M240.4,51.2c0.5-0.1,0.8-0.2,1.1-0.7c0.9-1.2,1.5-2.5,2.7-3.5c0.1-0.1,0.2-0.1,0.3-0.1c1.1,0,1.8-0.9,2.5-1.6
		c0,0,0.1-0.1,0.2-0.1c1.5,0.1,2.7-1.1,4.3-1.1c2.1,0.1,4.1,0,6.2,0c0.7,0,1.7-0.3,2.1,0.7c0,0.1,0.3,0.1,0.4,0.1
		c1.4-0.1,2.5,0.3,3.2,1.6c0,0.1,0.3,0.1,0.4,0.1c1,0.2,1.5,1.2,2.3,1.5c0.8,0.3,0.5,1.5,1.4,1.5c0,0,0.1,0.3,0.1,0.5
		c0.1,0.9,0.9,1.4,1.4,2c0,0.1,0.2,0.1,0.2,0.1c0,1,0.9,1.6,1,2.5c0.1,0.5-0.1,1.1,0.8,1.1c0.3,0,0.1,0.5,0.3,0.8
		c0.3,0.6-0.3,1.5,0.7,1.8c0,0,0,0.2,0,0.3c0.1,1.9,1.2,3.7,1,5.6c-0.1,0.6,0,1.3,0,1.9c0.1,0.6-0.4,1.5,0.6,1.8
		c0.1,0,0.1,0.4,0.1,0.6c0,1.7,0,3.5,0,5.2c0,0.3,0.2,0.7-0.4,0.8c-0.4,0-0.2,0.5-0.2,0.7c-0.1,1.3-0.1,2.6-0.1,3.9
		c0,0.6,0.3,1.3-0.6,1.6c-0.1,0-0.1,0.7-0.1,1c-0.1,0.6,0.2,1.3-0.7,1.5c-0.3,0.1-0.1,0.6-0.1,1c-0.1,0.6,0.3,1.5-0.9,1.6
		c0,0-0.1,0.1-0.1,0.2c0.3,1.1-0.8,1.6-1,2.5c-0.2,0.7-0.9,1.2-1.3,1.9c-0.3,0.5-0.7,1-1.2,1.3c-0.5,0.4-0.7,1-1.4,1.3
		c-0.5,0.2-1.3,0.7-1.4,1.1c-0.1,0.6-0.6,0.5-0.9,0.7c-0.9,0.5-1.8,0.8-2.7,1.4c-0.5,0.4-1.3,0.2-2,0.3c-0.6,0.1-1.3-0.4-1.6,0.6
		c0,0.1-0.4,0.1-0.6,0.1c-1,0-2.1,0-3.1,0c-0.4,0-0.9,0.2-1-0.5c0-0.2-0.4-0.1-0.7-0.1c-0.6,0-1.3,0.1-1.9-0.1
		c-1-0.4-2.1-0.5-2.8-1.4c-0.2-0.2-0.4-0.1-0.6-0.2c-0.4-0.1-1.1,0-1-0.8c0-0.1-0.1-0.2-0.2-0.2c-1-0.2-1.4-0.9-2-1.6
		c-0.2-0.3-0.7-0.4-0.8-0.9c0-0.2-0.7-0.3-0.8,0.2c-0.1,0.4,0,0.8,0,1.2c0,7.1,0,14.1,0,21.2c0,0.8-0.3,0.8-0.9,0.8
		c-5.3,0-10.6,0-15.8,0c-0.5,0-0.7-0.1-0.7-0.6c0-0.2,0-0.3,0-0.5c0-22.5,0-45,0-67.6c0-0.9,0.2-1.2,1.2-1.2c4.5,0.1,9.1,0,13.6,0
		c1.6,0,1.6,0,1.6,1.6C240.4,48.1,240.4,49.7,240.4,51.2z M255.6,71.6c0.1-2.2,0.2-4.5,0-6.7c0-0.3,0.1-0.7-0.2-0.7
		c-0.8,0-0.7-0.6-0.7-1c0.1-1.1-0.7-1.8-1.2-2.6c-0.4-0.6-1.3-0.7-1.4-1.5c0-0.3-0.3-0.2-0.5-0.2c-1.5-0.3-3.1-0.2-4.6-0.1
		c-0.5,0-1.4-0.2-1.3,0.9c0,0.1-0.3,0.2-0.5,0.2c-1.1,0.2-1.8,0.9-2,2.1c0,0.1-0.1,0.4-0.1,0.4c-0.8,0.1-0.6,0.7-0.7,1.2
		c-0.1,0.6,0.3,1.4-0.7,1.7c-0.1,0-0.1,0.3-0.1,0.5c0,3.2,0,6.4,0,9.6c0,0.2-0.1,0.5,0.1,0.6c0.8,0.1,0.7,0.8,0.6,1.2
		c-0.2,1.1,0.8,1.4,1.2,2.2c0.2,0.4,0.8,1,1.4,1.4c0.8,0.6,1.5,1.4,2.6,1.3c1.8-0.1,3.7,0.6,5.2-0.8c0.8-0.8,1.7-1.5,2-2.7
		c0.1-0.3,0.2-0.7,0.3-0.7c1.1,0,0.7-0.9,0.8-1.5C255.6,74.6,255.6,73.1,255.6,71.6z"/>
	<path class="st1" d="M352.8,75.5c-5.3,0-10.6,0-15.9,0c-0.8,0-1.1,0.2-0.9,1c0.2,0.7-0.4,1.7,0.6,2.1c0.1,0.1,0.2,0.5,0.2,0.7
		c-0.1,1.2,0.8,1.9,1.3,2.8c0.5,0.9,1.1,1.2,1.9,1.7c0.4,0.2,0.8,0.5,1.3,0.7c0.2,0.1,0.5,0.1,0.5,0.1c0,1.2,1,0.7,1.5,0.7
		c0.9,0.1,1.9,0,2.8,0c0.5,0,1.4,0.4,1.3-0.8c0-0.1,0.1-0.2,0.1-0.2c0.9,0.2,1.4-0.7,2.2-0.9c0.6-0.1,0.3-1,1-0.8
		c0-0.7,1-0.7,1.1-1.4c0-0.4,0.4-0.3,0.7-0.3c1.8,0,3.9-0.3,5.5,0.3c1.4,0.5,2.8,0.4,4.2,0.5c1.5,0.1,3,0,4.5,0.2
		c0.8,0.1,1.4,0.8,2.3,0.7c0.1,0,0.2,0.2,0.2,0.3c0,0.2,0,0.4-0.2,0.4c-0.6,0-0.5,0.4-0.5,0.8c0,0.6-1.3,2.2-1.5,2.8
		c-0.2,0.7-1.1,0.8-1.1,1.5c0,0.1-0.1,0.3-0.1,0.3c-0.9-0.4-0.7,1.2-1.6,0.9c-0.1,0.6-0.5,1-1,1.3c-0.5,0.4-0.8,1.1-1.5,1.4
		c-0.4,0.2-1.1,0.7-1.1,1c-0.2,0.7-0.7,0.4-1.1,0.6c-0.4,0.2-1-0.1-0.9,0.7c0,0.1-0.1,0.2-0.2,0.2c-1.3,0.2-2.5,1.3-3.9,1.1
		c-0.4-0.1-1-0.3-1.1,0.5c0,0.1-0.4,0.1-0.6,0.1c-1.1,0.1-2.2,0.1-3.2,0.2c-0.5,0-1.3-0.4-1.5,0.6c0,0.1-0.4,0.1-0.6,0.1
		c-2.2,0-4.5,0-6.7,0c-0.4,0-0.8,0.1-0.8-0.5c0-0.2-0.4-0.1-0.7-0.2c-0.8,0-1.7-0.1-2.5-0.1c-0.5,0-1.1,0.2-1.3-0.6
		c0-0.1-0.2-0.1-0.3-0.1c-1.5,0.2-2.9-0.3-4.2-1c-0.3-0.2-0.7-0.1-0.7-0.7c-0.1-0.5-1.1-0.4-1.1-1.1c-1.6,0.3-1.9-1.5-3.2-1.8
		c0.1-0.8-0.8-0.8-1.1-1.5c-0.2-0.6-0.9-1.1-0.9-1.9c-1,0.3-0.8-1-1.5-1.1c-0.1,0-0.1-0.2-0.2-0.3c-0.2-0.5,0.1-1.3-0.9-1.3
		c0-1-1.2-1.7-1-2.8c0.1-0.3,0.1-0.6-0.5-0.9c-0.5-0.2-0.3-1-0.4-1.5c-0.1-0.4,0.3-1.1-0.5-1.2c-0.1,0-0.2-0.6-0.2-0.9
		c0-0.8,0-1.5-0.1-2.3c0-0.4,0.2-1-0.6-1c-0.3,0-0.2-0.4-0.2-0.6c0-2.4,0-4.8,0-7.1c0-0.2,0.1-0.6,0.1-0.6c1.2,0,0.7-0.9,0.7-1.4
		c0.1-0.8-0.1-1.6,0.2-2.3c0.5-1.1,0.4-2.5,1-3.2c0.6-0.7,0.1-2,1.3-2.2c0.1,0,0-0.3,0.1-0.5c0.1-0.4-0.1-1.1,0.7-1.1
		c0.2,0,0.1-0.4,0.1-0.6c0.3-0.9,0.6-1.8,1.7-2.2c0.4-0.1,0.1-1.1,0.9-0.9c0.2-1.1,1.3-1.6,1.9-2.2c0.8-0.8,1.6-2.2,3.1-2.2
		c0.3,0,0.9-0.7,1.3-1.1c0.1-0.1,0-0.3,0.2-0.3c1.5,0.1,2.6-1.2,4.2-1.1c0.3,0,0.8,0.2,0.9-0.5c0-0.3,0.6-0.2,0.8-0.2
		c4.9-0.1,9.8-0.3,14.7,0.2c1,0.1,2.2,0.4,3.1,0.8c0.6,0.3,1.6,0.4,1.7,0.7c0.4,1.1,2,0.2,2.2,1.5c0,0.1,0.5,0.1,0.8,0.2
		c0.8,0.3,1.6,0.6,1.9,1.5c0.1,0.3,0.7,0.9,1.1,1c0.6,0.2,0.5,1.2,1.3,1.1c0,0.5,0.2,0.8,0.7,0.7c0,0.7,1,0.9,1,1.2
		c0,1,0.6,1.7,1.1,2.2c0.8,0.7,0.4,1.9,0.9,2.2c0.9,0.7,0.3,1.9,1.3,2.6c0.4,0.3,0.2,1.1,0.3,1.7c0.1,0.6-0.3,1.4,0.6,1.7
		c0.1,0,0.1,0.3,0.1,0.5c0.2,3.4,0.2,6.7,0.2,10.1c0,0.9-0.2,1.3-1.3,1.3C363.4,75.4,358.1,75.5,352.8,75.5z M344.7,65.4
		c2.3,0,4.5,0,6.8,0c0.3,0,0.8,0.2,0.9-0.2c0.1-0.4,0.3-0.9-0.5-1c-0.2,0-0.1-0.3-0.2-0.5c-0.2-1.2,0.1-2.5-0.8-3.6
		c-0.4-0.4-0.1-1.1-0.8-1.6c-0.3-0.2-0.8-0.5-1-0.8c-0.6-0.7-1.2-1.3-2.1-1.4c-0.2,0-0.4-0.1-0.4-0.2c-0.1-0.7-0.6-0.5-1-0.5
		c-0.5,0-1.1,0.1-1.6,0c-1.4-0.4-2.4,0.7-3.6,1c-0.5,0.1-1,0.7-1.7,0.7c-0.2,0-0.3,0.1-0.3,0.3c0.1,1.1-1.2,1.6-1.1,2.8
		c0,0.1,0,0.2,0,0.2c-1.3,0.6-0.3,2.3-1.4,3.1c-0.3,0.3-0.1,1.3-0.1,2c0,0.7,0.8,0.5,0.9,0.4c0.4-1,1.2-0.5,1.8-0.5
		C340.6,65.3,342.7,65.4,344.7,65.4z"/>
	<path class="st1" d="M452.2,44.3c2.7,0,5.5,0,8.2,0c0.5,0,1.2-0.3,1.3,0.6c0,0.1,0.3,0.1,0.5,0.1c0.8,0.2,1.8-0.3,2.2,0.8
		c0,0,0.1,0.1,0.2,0c1.2-0.3,1.8,1,2.9,1.2c0.2,0,0.9,0.8,1.3,1.1c0.7,0.4,0.6,1.6,1.6,1.5c0.3,0,0.1,1,0.8,0.9c0,1,1.2,1.5,1.1,2.5
		c0,0.3-0.1,0.7,0.4,0.6c0.1,0,0.2,0,0.2,0c0,0.7,0.7,1.1,0.8,1.7c0.2,0.7,0.3,1.3,0.1,2.1c-0.1,0.4-0.3,0.4-0.6,0.4
		c-1.3,0-2.7,0.1-4,0.2c-0.6,0-1.4-0.4-1.7,0.6c0,0.1-0.5,0.1-0.7,0.1c-2.4,0.1-4.7,0.1-7.1,0.2c-0.4,0-0.9-0.1-0.8,0.6
		c0,0.2-0.2,0.3-0.2,0.2c0-0.8-1.3-0.7-1.2-1.5c0.2-1-0.8-1.3-1.2-1.9c-0.4-0.6-1.4-0.7-1.9-1c-2.1-1.3-4.2-0.3-6.3-0.6
		c-0.5,0.9-1.8,0.6-2.2,1.8c-0.3,0.9-0.6,1.7-0.5,2.7c0,0.9,0.8,1.2,1.4,1.7c1.3,0.9,3,0.5,4.1,1.1c1.9,1,3.7,0.2,5.5,0.7
		c0.3,0.1,0.9-0.2,1,0.5c0,0.3,0.4,0.2,0.6,0.2c0.9,0.1,1.8,0.1,2.7,0.2c0.5,0,1.1-0.2,1.1,0.7c0,0.2,0.3,0.2,0.5,0.2
		c0.5,0,1,0.1,1.6,0.1c1.2,0.2,2.4,0.6,3.3,1.5c0.1,0.1,0.3,0.1,0.4,0.1c1,0.1,1.7,0.6,2.2,1.5c0.1,0.2,0.4,0.1,0.6,0.2
		c1,0.1,1.4,1.1,2.1,1.6c0.9,0.6,0.5,1.9,1.6,2.1c0,0,0.1,0.1,0.1,0.1c-0.2,1,0.8,1.6,1,2.4c0.1,0.5-0.3,1.3,0.7,1.3
		c0.1,0,0.2,0.5,0.2,0.7c0,2.2,0.1,4.4,0,6.6c0,0.3,0.1,0.9-0.6,0.9c-0.6,0-0.3,0.5-0.3,0.8c-0.1,0.7,0.3,1.6-0.8,2
		c-0.1,0-0.1,0.3-0.1,0.4c-0.1,1-0.6,1.7-1.5,2.2c-0.1,0-0.2,0.2-0.2,0.2c0,1.2-0.7,1.9-1.7,2.5c-0.9,0.6-1.6,1.3-2.6,1.7
		c-0.5,0.2-1,0.7-1.7,0.7c-0.1,0-0.2,0.1-0.2,0.2c0.1,1.1-0.8,0.8-1.4,0.8c-0.3,0-0.6,0-0.7,0.4c0,0.2-0.2,0.2-0.4,0.2
		c-2,0.3-3.9,1.3-6.1,1c-0.5-0.1-1.2-0.4-1.4,0.5c0,0.1-0.4,0.1-0.7,0.1c-2.6,0-5.1,0-7.7,0c-0.3,0-0.8,0.2-0.8-0.5
		c0-0.3-0.5-0.2-0.7-0.2c-1.2,0-2.3,0-3.5-0.1c-0.4-0.1-1,0.2-1.1-0.6c0,0-0.2-0.1-0.3-0.1c-1.5,0-2.9-0.2-4.2-0.9
		c-0.3-0.2-0.8,0-0.7-0.7c0-0.3-0.2-0.3-0.4-0.3c-0.4,0-0.6,0-0.6-0.5c0-0.2-0.1-0.3-0.3-0.3c-1.4,0-1.9-1.5-3.1-1.8
		c0.1-0.8-1-0.9-1-1.7c0-0.4,0.1-1-0.7-1c-0.3,0-0.7-0.9-0.7-1.1c-0.2-1.2-1.5-2.1-1.1-3.5c0.1-0.3,0-0.6-0.5-0.7
		c-0.7-0.2-0.5-0.9-0.4-1.4c0-0.5,0.2-0.8,0.8-0.8c2.4,0,4.9-0.1,7.3-0.2c0.3,0,0.7,0.2,0.8-0.4c0-0.3,0.3-0.2,0.5-0.2
		c2.5,0,5-0.3,7.4-0.2c0.5,0,0.7,0.1,0.7,0.6c-0.2,1,0.8,1.3,1.2,2.1c0.1,0.1,0.3,0.2,0.3,0.4c0.1,0.8,0.7,0.9,1.2,1.3
		c0.7,0.7,1.8,0.6,2.2,1.1c0.5,0.5,0.9,0.5,1.4,0.5c1.1,0,2.2-0.1,3.2,0c1.1,0.1,1.6-1.2,2.7-0.9c-0.1-1.2,1.9-0.7,1.8-2.1
		c-0.1-1.1,0.1-2.2-0.1-3.2c-0.2-1.1-0.9-1.6-2-2c-1.5-0.5-3.2-0.4-4.5-1c-1.5-0.7-3-0.1-4.2-0.8c-1.2-0.7-2.6-0.2-3.5-0.8
		c-1.1-0.8-2.1-0.4-3.1-0.7c-0.4-0.1-1,0.1-0.9-0.7c0-0.4-0.4-0.3-0.6-0.3c-1.4,0.3-2.4-0.9-3.6-1.1c-0.2,0-0.8-0.7-1.2-1
		c-0.5-0.4-1.1-0.9-1.3-1.2c-0.3-0.7-1.5-0.6-1.5-1.6c0-0.3-0.6-0.9-1.1-1.3c-0.1-0.1-0.3-0.1-0.3-0.1c0.1-1.1-1-1.8-1.1-2.9
		c-0.1-2.1-1.1-4.1-0.7-6.3c0.1-0.6-0.3-1.4,0.6-1.7c0.1,0,0.1-0.6,0.1-0.9c0-1.4,0.8-2.4,1.5-3.5c0.1-0.2,0.1-0.4,0.2-0.6
		c0.2-0.9,0.8-1.5,1.6-1.9c0.5-0.3,0.7-1.1,1.3-1.5c0.1-0.1,0-0.3,0.3-0.3c1-0.2,1.7-0.8,2.4-1.6c0,0,0.1,0,0.1,0
		c1.5,0.2,2.7-1,4.2-1.1c0.4,0,0.8,0.2,1-0.5c0.1-0.3,0.7-0.3,1.1-0.3C446.7,44.3,449.5,44.3,452.2,44.3
		C452.2,44.3,452.2,44.3,452.2,44.3z"/>
	<path class="st1" d="M399.4,44.3c2.6,0,5.2,0,7.8,0c0.5,0,1.1-0.2,1.3,0.6c0.1,0.3,0.6,0.1,1,0.2c0.6,0.1,1.4-0.4,1.7,0.7
		c0,0.1,0.6,0.1,1,0.1c0.4,0,0.9-0.1,0.9,0.6c0,0.1,0.1,0.2,0.2,0.2c0.9-0.2,1.5,0.4,2,0.9c0.4,0.5,1.2,0.6,1.3,1.4
		c0,0.6,1.1,0.4,0.9,1.2c0.9-0.2,0.8,0.9,1.4,1.1c0.1,0,0.2,0.1,0.2,0.1c0,1.1,1.3,1.7,1.1,2.8c-0.1,0.4,0.4,0.5,0.5,0.7
		c0.3,0.8,0.6,1.6,1,2.4c0.2,0.4-0.1,0.6-0.6,0.6c-1.6,0-3.1,0.1-4.7,0.2c-0.6,0-1.4-0.4-1.7,0.6c0,0.1-0.4,0.1-0.6,0.1
		c-2.1,0.1-4.3,0.1-6.4,0.2c-0.4,0-0.8-0.1-0.8,0.6c0,0.5-0.5,0.2-0.8,0.3c-0.3,0-0.6,0-0.5-0.4c0.1-1.1-1.3-1.7-1.1-2.8
		c-0.8-0.1-0.9-1.3-1.8-1.1c-0.3,0.1-0.7,0.1-0.8-0.5c0-0.4-0.4-0.2-0.7-0.3c-1.6,0-3.1-0.1-4.7,0c-0.6,0-1.2-0.2-1.7,0.2
		c-1.2,1-2,2.1-1.7,3.8c0.2,1.4,0.7,1.7,1.9,2.3c1.2,0.7,2.6,0.3,3.7,0.9c2,1.1,4.2,0.1,6,0.9c1.3,0.5,2.6,0.5,3.8,0.7
		c0.1,0,0.2,0,0.2,0c0.2,1.4,1.4,0.6,2.1,0.9c0.5,0.2,1.2-0.3,1.4,0.7c0.1,0.2,0.5,0.1,0.8,0.1c0.5,0.1,1.2-0.2,1.2,0.7
		c0,0.2,0.3,0.1,0.4,0.2c0.5,0.1,1.3-0.2,1.3,0.7c0,0,0.3,0.1,0.5,0.1c0.9,0.3,1.5,1,2.2,1.5c1,0.6,1.1,1.9,2.2,2.3
		c0.1,0,0.1,0.1,0.1,0.2c-0.1,1.1,0.7,1.9,1.2,2.7c0.7,1.2,0.6,2.4,0.7,3.6c0,0.1,0,0.3,0.1,0.3c1.4,0.3,0.6,1.4,0.8,2.2
		c0.1,0.4,0,0.8,0,1.3c0,0.4,0.1,0.8-0.6,0.7c-0.4,0-0.3,0.4-0.3,0.6c-0.1,0.8,0.1,1.7-0.3,2.3c-0.5,0.8-0.3,1.9-1.3,2.4
		c-0.1,0.1-0.2,0.2-0.2,0.4c-0.1,1.1-0.8,1.7-1.5,2.3c-0.3,0.3-0.3,1-0.9,1.3c-0.2,0.1-0.5,0.4-0.8,0.6c-0.4,0.3-0.8,0.7-1.3,1.1
		c-0.7,0.5-1.1,1.3-2,1.4c-0.2,0-0.5,0.1-0.5,0.1c-0.2,1.2-1.1,0.8-1.8,0.9c-0.4,0.1-1-0.2-1,0.6c0,0.1-0.2,0.1-0.4,0.1
		c-2.2,0.3-4.2,1.3-6.5,1c-0.3-0.1-0.9-0.2-1,0.5c0,0.3-0.4,0.2-0.6,0.2c-2.3,0-4.7,0-7,0c-0.3,0-0.7,0.1-0.8-0.4
		c0-0.3-0.5-0.2-0.7-0.2c-1.4,0-2.9,0.1-4.3-0.2c-1.2-0.3-2.4-0.6-3.5-0.9c-0.5-0.2-1.1-0.5-1.7-0.6c-0.1,0-0.3-0.1-0.3-0.1
		c0.1-1.1-0.7-0.9-1.3-0.9c-0.6,0-0.3-1.1-1.1-0.8c0-0.9-1.3-0.6-1.3-1.4c0-0.2-0.2-0.2-0.4-0.2c-0.9,0-1.3-0.5-1.3-1.4
		c0-0.4-0.1-0.5-0.5-0.6c-0.5-0.1-0.1-1.1-1-1c0.1-1.1-1.1-1.6-1.1-2.6c0-0.4,0-0.7-0.5-0.7c-0.5,0-0.3-0.4-0.4-0.7
		c-0.3-0.7,0.3-1.7-0.7-2.3c-0.4-0.2,0.1-1.1,0.6-1.1c2.3-0.1,4.7-0.1,7-0.2c0.4,0,1.1,0.3,1.2-0.5c0-0.1,0.4-0.1,0.6-0.1
		c2.4-0.1,4.7-0.1,7.1-0.2c1,0,1.3,0.4,1.7,1.3c0.5,1,0.7,2.5,2.2,3c0.2,1.2,1.5,0.7,1.9,1.2c0.5,0.8,1,0.5,1.6,0.5
		c1.2,0,2.4,0,3.7,0c0.5,0,1.2,0.3,1.4-0.6c0-0.1,0.3-0.1,0.5-0.1c0.5-0.1,1.1,0.1,1.1-0.8c0-0.3,0.7-0.7,1.1-0.9
		c0.5-0.3,0.5-0.6,0.5-1c0-0.7,0-1.3,0-2c0-0.8-0.7-1.3-1.1-1.8c-0.4-0.5-1.4-0.6-1.7-0.9c-1.1-1-2.4-0.2-3.4-0.8
		c-1.5-1-3.2-0.2-4.5-0.9c-1.5-0.8-3.1-0.2-4.4-0.9c-0.9-0.5-1.9-0.5-2.8-0.7c-0.1,0-0.3-0.1-0.3-0.3c0.1-0.8-0.5-0.5-0.9-0.6
		c-0.7-0.1-1.6,0.3-2-0.8c0-0.1-0.4,0-0.6-0.1c-0.4-0.1-1.1,0.2-1-0.7c0-0.2-0.3-0.2-0.4-0.2c-1,0-1.4-0.8-2-1.4
		c-0.1-0.1-0.2-0.3-0.3-0.3c-1-0.1-1.1-1.3-1.7-1.6c-1-0.5-0.5-1.8-1.5-2.1c0,0-0.1-0.1-0.1-0.1c0.1-1-0.9-1.6-0.9-2.6
		c-0.1-2.7-0.1-5.5,0-8.2c0-0.4-0.2-1,0.6-1c0.3,0,0.2-0.4,0.2-0.6c0.1-0.5-0.4-1.4,0.7-1.4c0,0,0.1-0.2,0.1-0.3
		c0-1.1,1.1-1.5,1.4-2.3c0.4-0.8,1.7-0.5,1.4-1.7c0.8,0.1,0.7-1.1,1.5-1c0.3-1.1,1.8-0.4,2.1-1.5c0,0,0.1-0.1,0.2-0.1
		c0.8-0.1,1.4-0.5,2.1-0.7c2.5-0.9,5.1-1.3,7.7-1.1C396.5,44.3,397.9,44.2,399.4,44.3C399.4,44.2,399.4,44.2,399.4,44.3z"/>
	<path class="st1" d="M317.5,46.4c-1-0.1-0.9,0.5-0.9,0.9c-0.1,0.7,0.2,1.6-0.7,2c-0.1,0-0.1,0.2-0.1,0.3c0.3,1.4-0.6,2.5-1.1,3.5
		c-0.5,0.9-0.6,1.7-0.7,2.5c-0.1,0.6-0.9,0.5-0.8,1.3c0.1,0.5-0.1,0.9-0.8,1.2c-0.5,0.2-0.1,1.3-0.3,1.9c-0.2,0.5-1.1,0.9-1.2,0.5
		c-0.2-0.8-0.7-0.5-1.1-0.6c-0.6-0.2-1.4,0.3-1.7-0.9c-0.1-0.3-1.2-0.1-1.8-0.1c-0.5,0-1.2-0.3-1.2,0.7c0,0.2-0.3,0.2-0.4,0.2
		c-0.9,0.2-1.6,0.8-1.9,1.6c-0.1,0.2-0.3,0.2-0.4,0.2c-0.2,0-0.3,0.1-0.5,0.1c0.2,1-0.9,1.4-0.9,2.4c0,0.7,0.3,1.6-0.7,1.9
		c-0.1,0-0.1,0.4-0.1,0.7c-0.1,1.2-0.1,2.4-0.2,3.7c0,0.3,0.1,0.7-0.4,0.8c-0.5,0.1-0.2,0.7-0.2,1c0,7.6,0,15.1,0,22.7
		c0,0.8-0.2,1.1-1,1.1c-5.2,0-10.4,0-15.5,0c-0.7,0-0.9-0.1-0.9-0.8c0-16.4,0-32.8,0-49.2c0-0.6,0.1-0.8,0.7-0.8c4.8,0,9.6,0,14.4,0
		c0.9,0,1.4,0.2,1.3,1.4c-0.1,1.4,0,2.9,0,4.3c0,0.3,0,0.6,0.5,0.6c0.3,0,0.5-0.1,0.5-0.4c0.2-0.9,0.7-1.7,1.5-2.5
		c0.1-0.1,0.1-0.2,0.1-0.4c0.2-1,1.2-1.3,1.6-2c0.6-1,1.9-0.5,2.2-1.5c0.1-0.2,0.6-0.2,0.9-0.2c2.1,0,4.3,0,6.4,0
		c0.4,0,1.1-0.2,1.2,0.6c0,0.2,0.5,0.1,0.8,0.1c0.6,0.1,1.3-0.1,1.7,0.7C315.9,46.1,316.7,45.9,317.5,46.4z"/>
	<path class="st4" d="M525.6,87.8c-13,0-26.1,0-39.1,0c-0.3,0-0.7,0-1,0c-0.9,0.1-1.1-0.5-0.6-1c0.5-0.5,0.4-1.5,1.4-1.5
		c0.2,0,0.2-0.1,0.3-0.3c0-0.7,0.2-1.3,0.8-1.9c0.4-0.4,0.7-1.2,1-1.8c0.2-0.3,0.3-0.3,0.6-0.3c0.7-0.2,1.3-0.1,2-0.1
		c24.9,0,49.9,0,74.8,0c1,0,1.3,0.2,1.3,1.2c-0.1,1.6-0.1,3.1,0,4.7c0,0.8-0.2,1-1,1C552.4,87.8,539,87.8,525.6,87.8z"/>
	<path class="st3" d="M529.7,75.5c-11.7,0-23.4,0-35,0c-0.3,0-0.6,0-0.8,0c-0.4-0.1-1,0.4-1.1-0.2c-0.1-0.5-0.5-1.3,0.5-1.5
		c0,0,0.1-0.1,0.1-0.1c-0.2-1.1,0.9-1.6,1.1-2.5c0.1-0.5,0.7-1,1.1-1.4c0.2-0.2,0.4-0.3,0.4-0.5c-0.1-1.3,0.6-1.4,1.6-1.4
		c22.7,0,45.5,0,68.2,0c0.9,0,1.1,0.2,1.1,1.1c-0.1,1.9-0.1,3.8,0,5.7c0,0.8-0.2,1-1,1C553.8,75.5,541.7,75.5,529.7,75.5z"/>
	<path class="st0" d="M533.7,63.1c-10.8,0-21.5,0-32.3,0c-0.9,0-1.3-0.8-1-1c0.8-0.6,0.8-1.3,0.9-2c1.2,0.2,0.7-1.1,1.1-1.4
		c0.6-0.4,0.3-1.5,1.3-1.5c0,0,0.1-0.2,0.1-0.3c-0.1-1.4,0.9-1.3,1.8-1.3c20,0,40,0,60,0c1,0,1.2,0.2,1.2,1.2
		c-0.1,1.7-0.1,3.5,0,5.2c0,0.9-0.2,1.1-1.1,1.1C555.1,63.1,544.4,63.1,533.7,63.1z"/>
</g>
</svg>
